<svg width="72" height="72" viewBox="0 0 72 72" fill="none" xmlns="http://www.w3.org/2000/svg">
<path fill-rule="evenodd" clip-rule="evenodd" d="M17.8723 16.8116C19.1996 15.2436 20 13.2153 20 11C20 6.02944 15.9706 2 11 2C6.02944 2 2 6.02944 2 11C2 15.9706 6.02944 20 11 20C13.2153 20 15.2436 19.1996 16.8116 17.8723L19.4697 20.5303C19.7626 20.8232 20.2374 20.8232 20.5303 20.5303C20.8232 20.2374 20.8232 19.7626 20.5303 19.4697L17.8723 16.8116ZM18.5 11C18.5 15.1421 15.1421 18.5 11 18.5C6.85786 18.5 3.5 15.1421 3.5 11C3.5 6.85786 6.85786 3.5 11 3.5C15.1421 3.5 18.5 6.85786 18.5 11Z" fill="black"/>
<path fill-rule="evenodd" clip-rule="evenodd" d="M29.6987 6.99988L34.0973 2.78455C35.161 1.76518 36.839 1.76517 37.9027 2.78455L42.3013 6.99988H44.847C45.4555 6.99988 45.923 7.53887 45.8369 8.1413L44.368 18.4241C44.1568 19.9021 42.8911 20.9999 41.3981 20.9999H30.6019C29.1089 20.9999 27.8432 19.9021 27.632 18.4241L26.1631 8.1413C26.077 7.53886 26.5445 6.99988 27.153 6.99988H29.6987ZM35.1351 3.86753C35.6186 3.40418 36.3814 3.40418 36.8649 3.86753L40.1334 6.99988H31.8666L35.1351 3.86753ZM27.7295 8.49988L29.117 18.212C29.2225 18.951 29.8554 19.4999 30.6019 19.4999H41.3981C42.1446 19.4999 42.7775 18.951 42.883 18.212L44.2705 8.49988H27.7295Z" fill="black"/>
<path fill-rule="evenodd" clip-rule="evenodd" d="M32 11.25C32.4142 11.25 32.75 11.5858 32.75 12V16C32.75 16.4142 32.4142 16.75 32 16.75C31.5858 16.75 31.25 16.4142 31.25 16V12C31.25 11.5858 31.5858 11.25 32 11.25Z" fill="black"/>
<path fill-rule="evenodd" clip-rule="evenodd" d="M36 11.25C36.4142 11.25 36.75 11.5858 36.75 12V16C36.75 16.4142 36.4142 16.75 36 16.75C35.5858 16.75 35.25 16.4142 35.25 16V12C35.25 11.5858 35.5858 11.25 36 11.25Z" fill="black"/>
<path fill-rule="evenodd" clip-rule="evenodd" d="M40 11.25C40.4142 11.25 40.75 11.5858 40.75 12V16C40.75 16.4142 40.4142 16.75 40 16.75C39.5858 16.75 39.25 16.4142 39.25 16V12C39.25 11.5858 39.5858 11.25 40 11.25Z" fill="black"/>
<path fill-rule="evenodd" clip-rule="evenodd" d="M60 10.5C61.933 10.5 63.5 8.933 63.5 7C63.5 5.067 61.933 3.5 60 3.5C58.067 3.5 56.5 5.067 56.5 7C56.5 8.933 58.067 10.5 60 10.5ZM60 12C62.7614 12 65 9.76142 65 7C65 4.23858 62.7614 2 60 2C57.2386 2 55 4.23858 55 7C55 9.76142 57.2386 12 60 12Z" fill="black"/>
<path fill-rule="evenodd" clip-rule="evenodd" d="M57 15.75C54.6528 15.75 52.75 17.6528 52.75 20V21C52.75 21.4142 52.4142 21.75 52 21.75C51.5858 21.75 51.25 21.4142 51.25 21V20C51.25 16.8244 53.8244 14.25 57 14.25H63C66.1756 14.25 68.75 16.8244 68.75 20V21C68.75 21.4142 68.4142 21.75 68 21.75C67.5858 21.75 67.25 21.4142 67.25 21V20C67.25 17.6528 65.3472 15.75 63 15.75H57Z" fill="black"/>
<path d="M13.7956 48V37.0703H17.3496L17.8779 32.7909H13.7956V30.0652C13.7956 28.8303 14.1273 27.9849 15.8355 27.9849H18V24.1696C16.9468 24.0525 15.8882 23.9959 14.829 24.0002C11.6877 24.0002 9.53085 25.9899 9.53085 29.6424V32.7829H6V37.0623H9.53856V48H13.7956Z" fill="#474747"/>
<path d="M35.9907 29.8176C34.3563 29.8176 32.7888 30.4659 31.6331 31.6198C30.4774 32.7737 29.8281 34.3388 29.8281 35.9707C29.8281 37.6025 30.4774 39.1676 31.6331 40.3215C32.7888 41.4754 34.3563 42.1237 35.9907 42.1237C37.6251 42.1237 39.1926 41.4754 40.3483 40.3215C41.504 39.1676 42.1533 37.6025 42.1533 35.9707C42.1533 34.3388 41.504 32.7737 40.3483 31.6198C39.1926 30.4659 37.6251 29.8176 35.9907 29.8176V29.8176ZM35.9907 39.9667C34.9289 39.9667 33.9106 39.5455 33.1598 38.7959C32.409 38.0462 31.9872 37.0295 31.9872 35.9693C31.9872 34.9092 32.409 33.8924 33.1598 33.1428C33.9106 32.3931 34.9289 31.972 35.9907 31.972C37.0525 31.972 38.0708 32.3931 38.8217 33.1428C39.5725 33.8924 39.9943 34.9092 39.9943 35.9693C39.9943 37.0295 39.5725 38.0462 38.8217 38.7959C38.0708 39.5455 37.0525 39.9667 35.9907 39.9667V39.9667Z" fill="#474747"/>
<path d="M42.3973 31.0262C43.1907 31.0262 43.834 30.3839 43.834 29.5917C43.834 28.7995 43.1907 28.1572 42.3973 28.1572C41.6038 28.1572 40.9606 28.7995 40.9606 29.5917C40.9606 30.3839 41.6038 31.0262 42.3973 31.0262Z" fill="#474747"/>
<path d="M47.3643 28.1331C47.0558 27.3376 46.5843 26.6151 45.98 26.0121C45.3758 25.409 44.652 24.9385 43.8552 24.6307C42.9227 24.2812 41.9376 24.0923 40.9418 24.0719C39.6584 24.016 39.2519 24 35.9973 24C32.7428 24 32.3256 24 31.0529 24.0719C30.0578 24.0912 29.0734 24.2802 28.1422 24.6307C27.3451 24.9381 26.6212 25.4085 26.0169 26.0116C25.4126 26.6148 24.9412 27.3374 24.6331 28.1331C24.2829 29.064 24.0941 30.0477 24.0746 31.0419C24.0173 32.322 24 32.7279 24 35.9787C24 39.2282 24 39.642 24.0746 40.9155C24.0946 41.9108 24.2825 42.8929 24.6331 43.8257C24.9421 44.6211 25.4139 45.3434 26.0184 45.9465C26.6228 46.5495 27.3466 47.0201 28.1435 47.328C29.073 47.6915 30.0578 47.8941 31.0555 47.9268C32.339 47.9827 32.7454 48 36 48C39.2546 48 39.6717 48 40.9445 47.9268C41.9402 47.9066 42.9252 47.7181 43.8578 47.3693C44.6545 47.0608 45.378 46.5899 45.9822 45.9867C46.5864 45.3834 47.058 44.661 47.3669 43.8656C47.7175 42.9341 47.9054 41.9521 47.9254 40.9568C47.9827 39.6766 48 39.2708 48 36.02C48 32.7691 48 32.3566 47.9254 31.0832C47.9099 30.0749 47.72 29.0768 47.3643 28.1331V28.1331ZM45.741 40.817C45.7324 41.5839 45.5922 42.3436 45.3265 43.0632C45.1264 43.5807 44.82 44.0506 44.427 44.4427C44.0341 44.8348 43.5632 45.1405 43.0449 45.34C42.3322 45.6041 41.5793 45.744 40.8192 45.7538C39.5531 45.8124 39.1959 45.827 35.9494 45.827C32.7001 45.827 32.3683 45.827 31.0782 45.7538C30.3184 45.7445 29.566 45.6045 28.8538 45.34C28.3337 45.1417 27.861 44.8366 27.4663 44.4444C27.0717 44.0522 26.7639 43.5817 26.5629 43.0632C26.3009 42.3514 26.1608 41.6006 26.1484 40.8423C26.0911 39.5782 26.0777 39.2216 26.0777 35.98C26.0777 32.7372 26.0777 32.4059 26.1484 31.1164C26.157 30.35 26.2972 29.5907 26.5629 28.8716C26.9693 27.8217 27.8023 26.9953 28.8538 26.5935C29.5663 26.3302 30.3186 26.1902 31.0782 26.1796C32.3456 26.1224 32.7015 26.1065 35.9494 26.1065C39.1972 26.1065 39.5304 26.1065 40.8192 26.1796C41.5794 26.1888 42.3323 26.3288 43.0449 26.5935C43.5632 26.7934 44.034 27.0994 44.4269 27.4917C44.8198 27.884 45.1262 28.3541 45.3265 28.8716C45.5885 29.5834 45.7286 30.3342 45.741 31.0925C45.7983 32.358 45.813 32.7132 45.813 35.9561C45.813 39.1976 45.813 39.5462 45.7557 40.8184H45.741V40.817Z" fill="#474747"/>
<path d="M71.5118 30.6123C71.3752 30.1112 71.1083 29.6542 70.7376 29.2868C70.3669 28.9194 69.9053 28.6544 69.3989 28.5182C67.521 28.0083 60.0083 28 60.0083 28C60.0083 28 52.4968 27.9917 50.6178 28.4791C50.1116 28.6215 49.651 28.8903 49.2802 29.2595C48.9093 29.6287 48.6407 30.086 48.5 30.5874C48.0048 32.4444 48 36.2958 48 36.2958C48 36.2958 47.9952 40.1663 48.4869 42.0043C48.7627 43.0205 49.5721 43.8233 50.601 44.0972C52.498 44.6071 59.9903 44.6154 59.9903 44.6154C59.9903 44.6154 67.503 44.6237 69.3809 44.1375C69.8875 44.0015 70.3495 43.7372 70.7211 43.3705C71.0927 43.0039 71.3611 42.5476 71.4998 42.0469C71.9962 40.1912 71.9998 36.3409 71.9998 36.3409C71.9998 36.3409 72.0238 32.4693 71.5118 30.6123V30.6123ZM57.6052 39.8639L57.6112 32.7491L63.8552 36.3124L57.6052 39.8639V39.8639Z" fill="#474747"/>
</svg>
